<svg width="105" height="103" viewBox="0 0 105 103" fill="none" xmlns="http://www.w3.org/2000/svg">
<g clip-path="url(#clip0_18_138)">
<path fill-rule="evenodd" clip-rule="evenodd" d="M53.9865 25.5504C53.514 23.9755 53.1542 22.3649 52.9069 20.7187V15.9712C62.3132 16.0728 70.8591 19.6917 77.2421 25.5504H53.9865ZM50.9655 25.5504C51.4617 23.9484 51.8375 22.3096 52.093 20.6339V15.9712C42.6865 16.0728 34.1407 19.6917 27.7578 25.5504H50.9655ZM27.1975 26.3488H50.7072C50.3659 27.3605 49.976 28.3572 49.5372 29.3391C47.656 33.6846 45.0887 37.4742 41.8353 40.7078L27.1975 26.3488ZM26.0465 25.5504H13.0232V26.3488H25.7755C19.4769 32.7872 15.5727 41.4971 15.4673 51.1008H0V51.8992H15.4673C15.5727 61.503 19.4769 70.2125 25.7755 76.6512H13.0232V77.4494H26.0465V90.225H26.8605V77.7153C33.4239 83.8941 42.3028 87.7237 52.093 87.8273V103H52.9069V87.8273C62.6972 87.7237 71.5758 83.8941 78.1395 77.7153V90.225H78.9533V77.4494H91.977V76.6512H79.2243C85.5231 70.2125 89.427 61.503 89.5326 51.8992H105V51.1008H89.5326C89.427 41.4971 85.5231 32.7872 79.2243 26.3488H91.977V25.5504H78.9533V12.7752H78.1395V25.2845C71.5758 19.1059 62.6972 15.2761 52.9069 15.1727V0H52.093V15.1727C42.3028 15.2761 33.4239 19.1059 26.8605 25.2845V12.7752H26.0465V25.5504ZM52.9069 87.029C62.3132 86.9272 70.8591 83.3084 77.2421 77.4494H53.9865C53.514 79.0243 53.1542 80.6352 52.9069 82.2814V87.029ZM52.093 82.3659C51.8375 80.6903 51.4617 79.0513 50.9655 77.4494H27.7578C34.1406 83.3084 42.6865 86.9272 52.093 87.029V82.3659ZM16.2813 51.1008H21.1214C22.7994 50.8583 24.4411 50.5053 26.0465 50.0418V27.2291C20.074 33.4904 16.3849 41.8735 16.2813 51.1008ZM21.0341 51.8992H16.2813C16.3849 61.1263 20.074 69.5094 26.0465 75.7709V53.0053C24.4133 52.5186 22.7425 52.1499 21.0341 51.8992ZM88.7189 51.1008C88.6151 41.8735 84.9261 33.4903 78.9533 27.2291V50.0418C80.5588 50.5053 82.2003 50.8583 83.8785 51.1008H88.7189ZM83.9658 51.8992C82.2577 52.1499 80.5869 52.5186 78.9533 53.0053V75.7709C84.9261 69.5094 88.6151 61.1263 88.7189 51.8992H83.9658ZM78.1395 76.3206V53.2587C77.1085 53.5934 76.092 53.976 75.0915 54.4064C70.6613 56.2518 66.7983 58.7702 63.5018 61.9617L78.1395 76.3206ZM78.1395 49.7964V26.4028L78.0846 26.3488H54.2368C54.5674 27.3605 54.9452 28.3572 55.3702 29.3391C57.3454 33.7591 59.9996 37.604 63.3327 40.8736C66.6658 44.1433 70.5856 46.7469 75.0915 48.6845C76.092 49.1014 77.1085 49.472 78.1395 49.7964ZM26.8605 76.5973V53.2587C27.8918 53.5934 28.9078 53.976 29.9088 54.4064C34.4147 56.2834 38.3342 58.8567 41.6673 62.1264C45.0004 65.396 47.6237 69.2411 49.5372 73.6612C49.976 74.6427 50.3659 75.6397 50.7072 76.6512H26.9154L26.8605 76.5973ZM26.8605 49.7964V27.1474L41.2571 41.2698C38.0139 44.3543 34.2311 46.8258 29.9088 48.6845C28.9078 49.1014 27.8918 49.472 26.8605 49.7964ZM54.2368 76.6512H77.3258L62.9286 62.5288C59.7845 65.7104 57.265 69.4208 55.3702 73.6612C54.9452 74.6427 54.5674 75.6397 54.2368 76.6512ZM43.9695 43.132C40.3751 46.658 36.1646 49.4609 31.3667 51.5444C36.1651 53.5688 40.3757 56.3427 43.9695 59.868C47.5633 63.3935 50.391 67.5237 52.4548 72.2305C54.5787 67.5243 57.436 63.3941 61.0305 59.868C64.6245 56.3427 68.8348 53.5688 73.6331 51.5444C68.8354 49.4609 64.6251 46.658 61.0305 43.132C57.436 39.606 54.5787 35.4758 52.4548 30.7693C50.391 35.4763 47.5633 39.6067 43.9695 43.132Z" fill="url(#paint0_linear_18_138)"/>
</g>
<defs>
<linearGradient id="paint0_linear_18_138" x1="25.6395" y1="77.8488" x2="77.9358" y2="24.9438" gradientUnits="userSpaceOnUse">
<stop stop-color="#446EFF"/>
<stop offset="0.366609" stop-color="#2E96FF"/>
<stop offset="0.832213" stop-color="#B1C5FF"/>
</linearGradient>
<clipPath id="clip0_18_138">
<rect width="105" height="103" fill="white"/>
</clipPath>
</defs>
</svg>
